<?xml version="1.0" encoding="UTF-8"?> <svg xmlns="http://www.w3.org/2000/svg" width="90" height="90" viewBox="0 0 90 90"><g id="Group_13" data-name="Group 13" transform="translate(0.386)"><g id="Rectangle_3" data-name="Rectangle 3" transform="translate(-0.386)" fill="#fff" stroke="#707070" stroke-width="1" opacity="0"><rect width="90" height="90" stroke="none"></rect><rect x="0.5" y="0.5" width="89" height="89" fill="none"></rect></g><g id="Group_3" data-name="Group 3" transform="translate(2.447 2.454)"><path id="Path_53" data-name="Path 53" d="M169.25,87.5h-8.605v2.868h8.605a1.435,1.435,0,0,1,1.434,1.434v44.461a1.435,1.435,0,0,1-1.434,1.434H91.8a1.435,1.435,0,0,1-1.434-1.434V91.8A1.435,1.435,0,0,1,91.8,90.368h8.605V87.5H91.8a4.306,4.306,0,0,0-4.3,4.3v44.461a4.306,4.306,0,0,0,4.3,4.3h30.118v12.908h-2.868a1.434,1.434,0,0,0-1.434,1.434v5.737a1.434,1.434,0,0,0,1.434,1.434H142a1.434,1.434,0,0,0,1.434-1.434v-5.737A1.434,1.434,0,0,0,142,153.474h-2.868V140.566H169.25a4.306,4.306,0,0,0,4.3-4.3V91.8a4.306,4.306,0,0,0-4.3-4.3Zm-28.684,71.711H120.487v-2.868h20.079Zm-4.3-5.737H124.789V140.566h4.3V146.3a1.434,1.434,0,1,0,2.868,0v-5.737h4.3Z" transform="translate(-87.5 -76.026)" fill="#1b54f8" stroke="#fff" stroke-width="0.5"></path><path id="Path_54" data-name="Path 54" d="M140,63.395v2.868h68.842V63.395h-7.171V30.408a1.431,1.431,0,0,0-.152-.642l-5.737-11.474A1.433,1.433,0,0,0,194.5,17.5H154.342a1.433,1.433,0,0,0-1.282.793l-5.737,11.474a1.43,1.43,0,0,0-.152.642V63.395Zm43.026,0V46.184h8.605V63.395ZM190.2,34.711a2.868,2.868,0,1,1-5.737,0V31.842H190.2Zm-8.605,0a2.868,2.868,0,1,1-5.737,0V31.842h5.737Zm-8.605,0a2.868,2.868,0,1,1-5.737,0V31.842h5.737Zm-8.605,0a2.868,2.868,0,1,1-5.737,0V31.842h5.737Zm-14.342-2.868h5.737v2.868a2.868,2.868,0,1,1-5.737,0Zm32.1-2.868h-5.4l4.3-8.605h5.4Zm-8.605,0h-5.4l4.3-8.605h5.4Zm-8.605,0h-5.4l4.3-8.605h5.4Zm28.137,2.868H198.8v2.868a2.868,2.868,0,1,1-5.737,0Zm.886-2.868,1.982-3.964,1.982,3.964Zm.378-7.171-3.585,7.171h-5.4l4.3-8.605h3.964Zm-39.1-1.434h5.4l-4.3,8.605h-5.4Zm-5.189,19.307A5.722,5.722,0,0,0,157.21,38.5a5.725,5.725,0,0,0,8.605,0,5.725,5.725,0,0,0,8.605,0,5.725,5.725,0,0,0,8.605,0,5.725,5.725,0,0,0,8.605,0,5.722,5.722,0,0,0,7.171,1.177V63.395h-4.3V44.75a1.434,1.434,0,0,0-1.434-1.434H181.592a1.434,1.434,0,0,0-1.434,1.434V63.395H150.039Z" transform="translate(-131.395 -17.5)" fill="#1b54f8" stroke="#fff" stroke-width="0.5"></path><path id="Path_55" data-name="Path 55" d="M247.579,175H228.934a1.434,1.434,0,0,0-1.434,1.434v12.908a1.434,1.434,0,0,0,1.434,1.434h18.645a1.434,1.434,0,0,0,1.434-1.434V176.434A1.434,1.434,0,0,0,247.579,175Zm-1.434,12.908H230.368V177.868h15.776Z" transform="translate(-204.553 -149.184)" fill="#1b54f8" stroke="#fff" stroke-width="0.5"></path><path id="Path_56" data-name="Path 56" d="M262.5,341.25h2.868v2.868H262.5Z" transform="translate(-233.816 -288.184)" fill="#1b54f8" stroke="#fff" stroke-width="0.5"></path><path id="Path_57" data-name="Path 57" d="M315,341.25h2.868v2.868H315Z" transform="translate(-277.71 -288.184)" fill="#1b54f8" stroke="#fff" stroke-width="0.5"></path><path id="Path_58" data-name="Path 58" d="M367.5,341.25h2.868v2.868H367.5Z" transform="translate(-321.605 -288.184)" fill="#1b54f8" stroke="#fff" stroke-width="0.5"></path><path id="Path_59" data-name="Path 59" d="M420,341.25h2.868v2.868H420Z" transform="translate(-365.5 -288.184)" fill="#1b54f8" stroke="#fff" stroke-width="0.5"></path><path id="Path_60" data-name="Path 60" d="M414.118,237.684a1.434,1.434,0,1,1-1.434-1.434,1.434,1.434,0,0,1,1.434,1.434" transform="translate(-358.184 -200.395)" fill="#1b54f8" stroke="#fff" stroke-width="0.5"></path></g></g></svg> 